# xmcd CD database file
#
# Track frame offsets:
#	150
#	21840
#	40529
#	75692
#	104903
#	127378
#	175725
#	188181
#	212893
#	244527
#
# Disc length: 3503 seconds
#
# Revision: 0
# Processed by: cddbd v1.5.2PL0 Copyright (c) Steve Scherf et al.
# Submitted via: CDex 1.60beta1
#
DISCID=8a0dad0a
DTITLE=Tim Garland/Geoffrey Keezer/Joe Locke - Rising Tide
DYEAR=2002
DGENRE=Jazz
TTITLE0=After Dark
TTITLE1=A Brother's Gift
TTITLE2=Dance Me Delirious
TTITLE3=Honu
TTITLE4=The Hourglass
TTITLE5=Sonata
TTITLE6=But You Were Gone
TTITLE7=Rising Tide
TTITLE8=Shelter
TTITLE9=Fantasy
EXTD=YEAR: 2002
EXTT0=
EXTT1=
EXTT2=
EXTT3=
EXTT4=
EXTT5=
EXTT6=
EXTT7=
EXTT8=
EXTT9=
PLAYORDER=
